# xmcd
#
# Track frame offsets: 
#        150
#        15851
#        30125
#        44925
#        62636
#        75025
#        92919
#        106753
#        120918
#        133581
#        139150
#        150420
#        167806
#        185074
#        193813
#        210120
#
# Disc length: 3000 seconds
#
# Revision: 2
# Processed by: cddbd v1.5.2PL0 Copyright (c) Steve Scherf et al.
# Submitted via: ExactAudioCopy v1.0b3
#
DISCID=bf0bb610
DTITLE=Die Rinks and Freunde - Scheine, guter Mond, scheine
DYEAR=2007
DGENRE=Kinderlieder
TTITLE0=Der Glühwurm Julius
TTITLE1=Geht der gute Mond auf seine Reise
TTITLE2=Scheine, guter Mond, scheine
TTITLE3=Komm noch mal auf meinen Schoß
TTITLE4=Ich habe keine Angst mehr
TTITLE5=Nur im Traum
TTITLE6=Regen und Honig
TTITLE7=Guten Abend, gut Nacht
TTITLE8=Manchmal wünsch ich mir ein Zimmer
TTITLE9=Bonsoir
TTITLE10=Riesenschaukel
TTITLE11=So ein Tag
TTITLE12=Plitsch-platsch
TTITLE13=Abendsegen
TTITLE14=Der Mond ist aufgegangen
TTITLE15=Schlaf gut, kleiner Fuß
EXTD=www.gerth.de, Best.-Nr. 939905
EXTT0=
EXTT1=
EXTT2=
EXTT3=
EXTT4=
EXTT5=
EXTT6=
EXTT7=
EXTT8=
EXTT9=
EXTT10=
EXTT11=
EXTT12=
EXTT13=
EXTT14=
EXTT15=
PLAYORDER=
